# xmcd CD database file
#
# Track frame offsets:
#	150
#	33195
#	66085
#	99492
#	132066
#	164889
#	197406
#
# Disc length: 3067 seconds
#
# Revision: 0
# Processed by: cddbd v1.5.2PL0 Copyright (c) Steve Scherf et al.
# Submitted via: CDex 1.51
#
DISCID=580bf907
DTITLE=Jana Runnalls - Chakra Mantras
DYEAR=2007
DGENRE=New Age
TTITLE0=Root Chakra - Ganapathi Chant
TTITLE1=Sacral Chakra - Saraswati Chant
TTITLE2=Solar Plexus - Rama Chant
TTITLE3=Heart Chakra - Tara Chant
TTITLE4=Throat Chakra - Hanuman Chant
TTITLE5=Brow Chakra - Shiva Chant
TTITLE6=Crown Chakra - Vasudeva Chant
EXTD=YEAR: 2007
EXTT0=
EXTT1=
EXTT2=
EXTT3=
EXTT4=
EXTT5=
EXTT6=
PLAYORDER=
